<svg width="29" height="26" viewBox="0 0 29 26" fill="none" xmlns="http://www.w3.org/2000/svg">
<path d="M18.5 0C15.7256 0.0334721 13.0743 1.15047 11.1124 3.11239C9.15047 5.07431 8.03347 7.72562 8 10.5C8.03347 13.2744 9.15047 15.9257 11.1124 17.8876C13.0743 19.8495 15.7256 20.9665 18.5 21C21.2744 20.9665 23.9257 19.8495 25.8876 17.8876C27.8495 15.9257 28.9665 13.2744 29 10.5C28.9665 7.72562 27.8495 5.07431 25.8876 3.11239C23.9257 1.15047 21.2744 0.0334721 18.5 0ZM24.5 11.25H19.25V16.5H17.75V11.25H12.5V9.75H17.75V4.5H19.25V9.75H24.5V11.25Z" fill="#00302E" fill-opacity="0.8"/>
</svg>
