<svg width="19" height="22" viewBox="0 0 19 22" fill="none" xmlns="http://www.w3.org/2000/svg">
<path d="M18.4998 16.6695C18.4998 19.7195 15.9748 22.172 12.9248 21.99C9.79032 21.803 7.64482 18.7885 8.04882 15.6375C8.29332 13.721 9.19182 12.0775 10.1698 10.8025C10.3398 10.58 10.5143 12.3705 10.6888 12.1735C10.8638 11.971 12.4858 9.16398 13.0498 8.17798C13.0741 8.13449 13.1074 8.09673 13.1476 8.06727C13.1877 8.0378 13.2337 8.01732 13.2825 8.00722C13.3312 7.99711 13.3816 7.99762 13.4301 8.00871C13.4787 8.0198 13.5243 8.04121 13.5638 8.07148C14.6968 8.92648 18.4998 12.138 18.4998 16.6695Z" fill="#FF6723"/>
<path d="M16.9998 17.925C16.9998 19.946 15.2403 21.5705 13.1003 21.497C10.7903 21.419 9.20631 19.305 9.54531 17.1275C10.0348 14.0055 13.2398 11.9995 13.2398 11.9995C13.2398 11.9995 16.9998 14.353 16.9998 17.925Z" fill="#FFB02E"/>
</svg>
