<svg width="21" height="23" viewBox="0 0 21 23" fill="none" xmlns="http://www.w3.org/2000/svg">
<path d="M1.38 0.0103406C1.49739 -0.00878159 1.61764 0.000288505 1.73083 0.0368022C1.84403 0.073316 1.94691 0.136226 2.031 0.220341L3 1.19084L3.969 0.220341C4.03867 0.150496 4.12143 0.0950815 4.21255 0.0572719C4.30367 0.0194622 4.40135 0 4.5 0C4.59865 0 4.69633 0.0194622 4.78745 0.0572719C4.87857 0.0950815 4.96133 0.150496 5.031 0.220341L6 1.19084L6.969 0.220341C7.03867 0.150496 7.12143 0.0950815 7.21255 0.0572719C7.30367 0.0194622 7.40135 0 7.5 0C7.59865 0 7.69633 0.0194622 7.78745 0.0572719C7.87857 0.0950815 7.96133 0.150496 8.031 0.220341L9 1.19084L9.969 0.220341C10.0387 0.150496 10.1214 0.0950815 10.2125 0.0572719C10.3037 0.0194622 10.4013 0 10.5 0C10.5987 0 10.6963 0.0194622 10.7874 0.0572719C10.8786 0.0950815 10.9613 0.150496 11.031 0.220341L12 1.19084L12.969 0.220341C13.0387 0.150496 13.1214 0.0950815 13.2126 0.0572719C13.3037 0.0194622 13.4013 0 13.5 0C13.5987 0 13.6963 0.0194622 13.7874 0.0572719C13.8786 0.0950815 13.9613 0.150496 14.031 0.220341L15 1.19084L15.969 0.220341C16.0387 0.150496 16.1214 0.0950815 16.2126 0.0572719C16.3037 0.0194622 16.4013 0 16.5 0C16.5987 0 16.6963 0.0194622 16.7874 0.0572719C16.8786 0.0950815 16.9613 0.150496 17.031 0.220341L18 1.19084L18.969 0.220341C19.053 0.13624 19.1559 0.0733216 19.269 0.036776C19.3821 0.000230516 19.5023 -0.0088954 19.6197 0.010151C19.737 0.0291974 19.8482 0.0758704 19.944 0.14632C20.0397 0.21677 20.1174 0.308979 20.1705 0.415341L20.9205 1.91534C20.9728 2.01963 21 2.13468 21 2.25134V20.2513C21 20.368 20.9728 20.483 20.9205 20.5873L20.1705 22.0873C20.1173 22.1934 20.0397 22.2854 19.9441 22.3556C19.8484 22.4259 19.7375 22.4725 19.6203 22.4915C19.5032 22.5105 19.3832 22.5015 19.2702 22.4651C19.1573 22.4288 19.0545 22.3661 18.9705 22.2823L18 21.3118L17.031 22.2823C16.9613 22.3522 16.8786 22.4076 16.7874 22.4454C16.6963 22.4832 16.5987 22.5027 16.5 22.5027C16.4013 22.5027 16.3037 22.4832 16.2126 22.4454C16.1214 22.4076 16.0387 22.3522 15.969 22.2823L15 21.3118L14.031 22.2823C13.9613 22.3522 13.8786 22.4076 13.7874 22.4454C13.6963 22.4832 13.5987 22.5027 13.5 22.5027C13.4013 22.5027 13.3037 22.4832 13.2126 22.4454C13.1214 22.4076 13.0387 22.3522 12.969 22.2823L12 21.3118L11.031 22.2823C10.9613 22.3522 10.8786 22.4076 10.7874 22.4454C10.6963 22.4832 10.5987 22.5027 10.5 22.5027C10.4013 22.5027 10.3037 22.4832 10.2125 22.4454C10.1214 22.4076 10.0387 22.3522 9.969 22.2823L9 21.3118L8.031 22.2823C7.96133 22.3522 7.87857 22.4076 7.78745 22.4454C7.69633 22.4832 7.59865 22.5027 7.5 22.5027C7.40135 22.5027 7.30367 22.4832 7.21255 22.4454C7.12143 22.4076 7.03867 22.3522 6.969 22.2823L6 21.3118L5.031 22.2823C4.96133 22.3522 4.87857 22.4076 4.78745 22.4454C4.69633 22.4832 4.59865 22.5027 4.5 22.5027C4.40135 22.5027 4.30367 22.4832 4.21255 22.4454C4.12143 22.4076 4.03867 22.3522 3.969 22.2823L3 21.3118L2.031 22.2823C1.94696 22.3664 1.84414 22.4294 1.731 22.4659C1.61787 22.5025 1.49767 22.5116 1.38031 22.4925C1.26296 22.4735 1.15181 22.4268 1.05604 22.3564C0.960273 22.2859 0.882624 22.1937 0.8295 22.0873L0.0795 20.5873C0.0272291 20.483 7.8119e-06 20.368 0 20.2513V2.25134C7.8119e-06 2.13468 0.0272291 2.01963 0.0795 1.91534L0.8295 0.415341C0.882617 0.309053 0.960228 0.216906 1.05594 0.146493C1.15165 0.0760791 1.26272 0.0294136 1.38 0.0103406ZM1.7055 2.01734L1.5 2.42834V20.0743L1.7055 20.4853L2.4705 19.7203C2.61115 19.5797 2.80188 19.5008 3.00075 19.5008C3.19962 19.5008 3.39035 19.5797 3.531 19.7203L4.5 20.6908L5.469 19.7218C5.53867 19.652 5.62143 19.5966 5.71255 19.5588C5.80367 19.521 5.90135 19.5015 6 19.5015C6.09865 19.5015 6.19633 19.521 6.28745 19.5588C6.37857 19.5966 6.46133 19.652 6.531 19.7218L7.5 20.6908L8.469 19.7218C8.53867 19.652 8.62143 19.5966 8.71255 19.5588C8.80367 19.521 8.90135 19.5015 9 19.5015C9.09865 19.5015 9.19633 19.521 9.28745 19.5588C9.37857 19.5966 9.46133 19.652 9.531 19.7218L10.5 20.6908L11.469 19.7218C11.5387 19.652 11.6214 19.5966 11.7126 19.5588C11.8037 19.521 11.9013 19.5015 12 19.5015C12.0987 19.5015 12.1963 19.521 12.2874 19.5588C12.3786 19.5966 12.4613 19.652 12.531 19.7218L13.5 20.6908L14.469 19.7218C14.5387 19.652 14.6214 19.5966 14.7126 19.5588C14.8037 19.521 14.9013 19.5015 15 19.5015C15.0987 19.5015 15.1963 19.521 15.2874 19.5588C15.3786 19.5966 15.4613 19.652 15.531 19.7218L16.5 20.6908L17.469 19.7218C17.5387 19.652 17.6214 19.5966 17.7126 19.5588C17.8037 19.521 17.9013 19.5015 18 19.5015C18.0987 19.5015 18.1963 19.521 18.2874 19.5588C18.3786 19.5966 18.4613 19.652 18.531 19.7218L19.2945 20.4853L19.5 20.0743V2.42834L19.2945 2.01734L18.5295 2.78234C18.3889 2.92294 18.1981 3.00193 17.9993 3.00193C17.8004 3.00193 17.6096 2.92294 17.469 2.78234L16.5 1.81184L15.531 2.78234C15.4613 2.85219 15.3786 2.9076 15.2874 2.94541C15.1963 2.98322 15.0987 3.00268 15 3.00268C14.9013 3.00268 14.8037 2.98322 14.7126 2.94541C14.6214 2.9076 14.5387 2.85219 14.469 2.78234L13.5 1.81184L12.531 2.78234C12.4613 2.85219 12.3786 2.9076 12.2874 2.94541C12.1963 2.98322 12.0987 3.00268 12 3.00268C11.9013 3.00268 11.8037 2.98322 11.7126 2.94541C11.6214 2.9076 11.5387 2.85219 11.469 2.78234L10.5 1.81184L9.531 2.78234C9.46133 2.85219 9.37857 2.9076 9.28745 2.94541C9.19633 2.98322 9.09865 3.00268 9 3.00268C8.90135 3.00268 8.80367 2.98322 8.71255 2.94541C8.62143 2.9076 8.53867 2.85219 8.469 2.78234L7.5 1.81184L6.531 2.78234C6.46133 2.85219 6.37857 2.9076 6.28745 2.94541C6.19633 2.98322 6.09865 3.00268 6 3.00268C5.90135 3.00268 5.80367 2.98322 5.71255 2.94541C5.62143 2.9076 5.53867 2.85219 5.469 2.78234L4.5 1.81184L3.531 2.78234C3.46133 2.85219 3.37857 2.9076 3.28745 2.94541C3.19633 2.98322 3.09865 3.00268 3 3.00268C2.90135 3.00268 2.80367 2.98322 2.71255 2.94541C2.62143 2.9076 2.53867 2.85219 2.469 2.78234L1.7055 2.01734Z" fill="#BCBCBC"/>
<path d="M3 6.00122C3 5.80231 3.07902 5.61154 3.21967 5.47089C3.36032 5.33024 3.55109 5.25122 3.75 5.25122H12.75C12.9489 5.25122 13.1397 5.33024 13.2803 5.47089C13.421 5.61154 13.5 5.80231 13.5 6.00122C13.5 6.20013 13.421 6.3909 13.2803 6.53155C13.1397 6.6722 12.9489 6.75122 12.75 6.75122H3.75C3.55109 6.75122 3.36032 6.6722 3.21967 6.53155C3.07902 6.3909 3 6.20013 3 6.00122ZM3 9.00122C3 8.80231 3.07902 8.61154 3.21967 8.47089C3.36032 8.33024 3.55109 8.25122 3.75 8.25122H12.75C12.9489 8.25122 13.1397 8.33024 13.2803 8.47089C13.421 8.61154 13.5 8.80231 13.5 9.00122C13.5 9.20013 13.421 9.3909 13.2803 9.53155C13.1397 9.6722 12.9489 9.75122 12.75 9.75122H3.75C3.55109 9.75122 3.36032 9.6722 3.21967 9.53155C3.07902 9.3909 3 9.20013 3 9.00122ZM3 12.0012C3 11.8023 3.07902 11.6115 3.21967 11.4709C3.36032 11.3302 3.55109 11.2512 3.75 11.2512H12.75C12.9489 11.2512 13.1397 11.3302 13.2803 11.4709C13.421 11.6115 13.5 11.8023 13.5 12.0012C13.5 12.2001 13.421 12.3909 13.2803 12.5316C13.1397 12.6722 12.9489 12.7512 12.75 12.7512H3.75C3.55109 12.7512 3.36032 12.6722 3.21967 12.5316C3.07902 12.3909 3 12.2001 3 12.0012ZM3 15.0012C3 14.8023 3.07902 14.6115 3.21967 14.4709C3.36032 14.3302 3.55109 14.2512 3.75 14.2512H12.75C12.9489 14.2512 13.1397 14.3302 13.2803 14.4709C13.421 14.6115 13.5 14.8023 13.5 15.0012C13.5 15.2001 13.421 15.3909 13.2803 15.5316C13.1397 15.6722 12.9489 15.7512 12.75 15.7512H3.75C3.55109 15.7512 3.36032 15.6722 3.21967 15.5316C3.07902 15.3909 3 15.2001 3 15.0012ZM15 6.00122C15 5.80231 15.079 5.61154 15.2197 5.47089C15.3603 5.33024 15.5511 5.25122 15.75 5.25122H17.25C17.4489 5.25122 17.6397 5.33024 17.7803 5.47089C17.921 5.61154 18 5.80231 18 6.00122C18 6.20013 17.921 6.3909 17.7803 6.53155C17.6397 6.6722 17.4489 6.75122 17.25 6.75122H15.75C15.5511 6.75122 15.3603 6.6722 15.2197 6.53155C15.079 6.3909 15 6.20013 15 6.00122ZM15 9.00122C15 8.80231 15.079 8.61154 15.2197 8.47089C15.3603 8.33024 15.5511 8.25122 15.75 8.25122H17.25C17.4489 8.25122 17.6397 8.33024 17.7803 8.47089C17.921 8.61154 18 8.80231 18 9.00122C18 9.20013 17.921 9.3909 17.7803 9.53155C17.6397 9.6722 17.4489 9.75122 17.25 9.75122H15.75C15.5511 9.75122 15.3603 9.6722 15.2197 9.53155C15.079 9.3909 15 9.20013 15 9.00122ZM15 12.0012C15 11.8023 15.079 11.6115 15.2197 11.4709C15.3603 11.3302 15.5511 11.2512 15.75 11.2512H17.25C17.4489 11.2512 17.6397 11.3302 17.7803 11.4709C17.921 11.6115 18 11.8023 18 12.0012C18 12.2001 17.921 12.3909 17.7803 12.5316C17.6397 12.6722 17.4489 12.7512 17.25 12.7512H15.75C15.5511 12.7512 15.3603 12.6722 15.2197 12.5316C15.079 12.3909 15 12.2001 15 12.0012ZM15 15.0012C15 14.8023 15.079 14.6115 15.2197 14.4709C15.3603 14.3302 15.5511 14.2512 15.75 14.2512H17.25C17.4489 14.2512 17.6397 14.3302 17.7803 14.4709C17.921 14.6115 18 14.8023 18 15.0012C18 15.2001 17.921 15.3909 17.7803 15.5316C17.6397 15.6722 17.4489 15.7512 17.25 15.7512H15.75C15.5511 15.7512 15.3603 15.6722 15.2197 15.5316C15.079 15.3909 15 15.2001 15 15.0012Z" fill="#BCBCBC"/>
</svg>
