<svg width="24" height="24" viewBox="0 0 24 24" fill="none" xmlns="http://www.w3.org/2000/svg">
<path fill-rule="evenodd" clip-rule="evenodd" d="M10.698 2.79898C11.0606 2.48806 11.5224 2.31714 12 2.31714C12.4776 2.31714 12.9395 2.48806 13.302 2.79898L19.638 8.22898L22.125 10.219C22.2276 10.3011 22.313 10.4025 22.3763 10.5176C22.4397 10.6327 22.4797 10.7591 22.4942 10.8897C22.5087 11.0202 22.4973 11.1524 22.4607 11.2785C22.4242 11.4047 22.3631 11.5224 22.281 11.625C22.1989 11.7275 22.0975 11.8129 21.9824 11.8763C21.8673 11.9396 21.7409 11.9797 21.6103 11.9942C21.4798 12.0087 21.3476 11.9973 21.2215 11.9607C21.0953 11.9241 20.9776 11.8631 20.875 11.781L20 11.081V19C20 19.5304 19.7893 20.0391 19.4142 20.4142C19.0392 20.7893 18.5304 21 18 21H14V16C14 15.4696 13.7893 14.9608 13.4142 14.5858C13.0392 14.2107 12.5304 14 12 14C11.4696 14 10.9609 14.2107 10.5858 14.5858C10.2107 14.9608 10 15.4696 10 16V21H6.00001C5.46958 21 4.96087 20.7893 4.5858 20.4142C4.21073 20.0391 4.00001 19.5304 4.00001 19V11.08L3.12501 11.78C3.02315 11.867 2.90485 11.9326 2.77713 11.973C2.64941 12.0134 2.51488 12.0277 2.38153 12.0151C2.24817 12.0025 2.11871 11.9632 2.00082 11.8996C1.88293 11.836 1.77903 11.7493 1.69527 11.6448C1.61151 11.5403 1.5496 11.42 1.51323 11.2911C1.47685 11.1622 1.46675 11.0272 1.48351 10.8943C1.50028 10.7614 1.54357 10.6333 1.61082 10.5174C1.67808 10.4016 1.76792 10.3004 1.87501 10.22L4.36201 8.22998L10.698 2.79898Z" fill="#BCBCBC"/>
</svg>
