<svg width="21" height="20" viewBox="0 0 21 20" fill="none" xmlns="http://www.w3.org/2000/svg">
<path d="M1.29809 6.7636V6.7501C1.29807 5.41669 1.69297 4.11314 2.43299 3.00392C3.173 1.8947 4.22496 1.0295 5.45614 0.517481C6.68733 0.00546201 8.04259 -0.130437 9.35093 0.126929C10.6593 0.384295 11.8621 1.0234 12.8076 1.9636C13.5515 1.59642 14.3825 1.44203 15.2087 1.51751C16.0348 1.59299 16.8241 1.89538 17.4891 2.39129C18.1542 2.88719 18.6693 3.5573 18.9774 4.32758C19.2855 5.09785 19.3747 5.93831 19.2351 6.7561C19.4403 6.77515 19.6395 6.8363 19.82 6.93573C20.0006 7.03517 20.1587 7.17075 20.2846 7.33402C20.4104 7.4973 20.5012 7.68475 20.5514 7.88469C20.6015 8.08463 20.61 8.29276 20.5761 8.4961C19.8981 12.5746 18.2211 15.1561 15.5481 16.2421V17.2501C15.5481 17.8468 15.311 18.4191 14.8891 18.8411C14.4671 19.263 13.8948 19.5001 13.2981 19.5001H7.29809C6.70135 19.5001 6.12905 19.263 5.7071 18.8411C5.28514 18.4191 5.04809 17.8468 5.04809 17.2501V16.2421C2.37509 15.1561 0.698086 12.5746 0.020086 8.4961C-0.0126354 8.29817 -0.00531874 8.09568 0.0416029 7.90062C0.0885245 7.70557 0.174098 7.52191 0.293258 7.36051C0.412418 7.19911 0.562744 7.06325 0.735339 6.96098C0.907935 6.85871 1.09929 6.7921 1.29809 6.7651V6.7636ZM2.79809 6.7501H4.29809C4.29809 5.75554 4.69317 4.80171 5.39644 4.09845C6.0997 3.39519 7.05352 3.0001 8.04809 3.0001C9.04265 3.0001 9.99648 3.39519 10.6997 4.09845C11.403 4.80171 11.7981 5.75554 11.7981 6.7501H13.2981C13.2981 5.35771 12.745 4.02235 11.7604 3.03779C10.7758 2.05322 9.44047 1.5001 8.04809 1.5001C6.6557 1.5001 5.32034 2.05322 4.33578 3.03779C3.35121 4.02235 2.79809 5.35771 2.79809 6.7501ZM5.79809 6.7501H10.2981C10.2981 6.15336 10.061 5.58107 9.63908 5.15911C9.21712 4.73715 8.64482 4.5001 8.04809 4.5001C7.45135 4.5001 6.87905 4.73715 6.4571 5.15911C6.03514 5.58107 5.79809 6.15336 5.79809 6.7501ZM16.0971 6.7501H17.7036C17.8168 6.30681 17.8274 5.84351 17.7345 5.39552C17.6415 4.94753 17.4476 4.52667 17.1673 4.165C16.8871 3.80333 16.528 3.51039 16.1174 3.30852C15.7069 3.10665 15.2556 3.00116 14.7981 3.0001C14.4381 3.0001 14.0961 3.0631 13.7781 3.1786C14.0436 3.6046 14.2626 4.0636 14.4306 4.5451C14.7163 4.47424 15.0165 4.48883 15.294 4.58706C15.5715 4.68529 15.814 4.86284 15.9915 5.09767C16.1689 5.3325 16.2736 5.61427 16.2923 5.90803C16.3111 6.20178 16.2432 6.49458 16.0971 6.7501ZM14.0481 16.5001H6.54809V17.2501C6.54809 17.449 6.6271 17.6398 6.76776 17.7804C6.90841 17.9211 7.09917 18.0001 7.29809 18.0001H13.2981C13.497 18.0001 13.6878 17.9211 13.8284 17.7804C13.9691 17.6398 14.0481 17.449 14.0481 17.2501V16.5001ZM6.02009 15.0001H14.5761C16.9551 14.2351 18.4611 12.0721 19.0971 8.2501H1.49909C2.13509 12.0721 3.64109 14.2351 6.02009 15.0001Z" fill="#BCBCBC"/>
</svg>
