<svg width="21" height="21" viewBox="0 0 21 21" fill="none" xmlns="http://www.w3.org/2000/svg">
<path d="M0 10.5C0 12.5767 0.615814 14.6068 1.76957 16.3335C2.92332 18.0602 4.5632 19.406 6.48182 20.2007C8.40045 20.9955 10.5116 21.2034 12.5484 20.7982C14.5852 20.3931 16.4562 19.3931 17.9246 17.9246C19.3931 16.4562 20.3931 14.5852 20.7982 12.5484C21.2034 10.5116 20.9955 8.40045 20.2007 6.48182C19.406 4.5632 18.0602 2.92332 16.3335 1.76957C14.6068 0.615814 12.5767 0 10.5 0C7.71523 0 5.04451 1.10625 3.07538 3.07538C1.10625 5.04451 0 7.71523 0 10.5ZM4.5 9.75H13.6125L9.4275 5.54475L10.5 4.5L16.5 10.5L10.5 16.5L9.4275 15.4298L13.6125 11.25H4.5V9.75Z" fill="#00302E"/>
</svg>
